<?xml version="1.0" encoding="utf-8"?>
<!-- Generator: Adobe Illustrator 24.0.0, SVG Export Plug-In . SVG Version: 6.00 Build 0)  -->
<svg version="1.1" id="Layer_1" xmlns="http://www.w3.org/2000/svg" xmlns:xlink="http://www.w3.org/1999/xlink" x="0px" y="0px"
	 viewBox="0 0 1110 300" style="enable-background:new 0 0 1110 300;" xml:space="preserve">
<style type="text/css">
	.st0{display:none;fill:#EA4C89;}
	.st1{fill:#FFFFFF;}
</style>
<rect x="0" class="st0" width="1110" height="300"/>
<path id="field" class="st1" d="M907.16,220.21l-110.6-63.85l-70.22-40.54c-6.5-3.75-14.57-3.75-21.08,0L386.24,300h11.24
	l310.59-179.32c4.77-2.75,10.69-2.75,15.46,0l22.63,13.07l-72.73,41.99c-34.36,19.84-53.28,47.4-53.28,77.61
	c0,15.76,5.14,31.57,14.84,46.66h6.74c-10.41-15.09-15.95-30.93-15.95-46.66c0-28.11,17.92-53.95,50.47-72.74l75.54-43.61
	l83.67,48.31l-35.59,20.57l-17.97-10.37l-3.21,1.85l17.97,10.37l-28.12,16.25l-18-10.39l-3.21,1.85l18,10.39l-28.47,16.45
	l-17.85-10.3l-3.21,1.85l17.85,10.3l-39.44,22.79l24.74,14.28c-7.88,5.38-13.17,11.81-15.49,18.79h6.02
	c2.48-5.76,7.6-11.11,14.96-15.62L751.49,300h11.24l-32.51-18.77c11.84-5.67,26.4-8.5,40.97-8.5c16.46,0,32.92,3.62,45.45,10.85
	c8.08,4.67,13.63,10.32,16.26,16.42h6.02c-2.69-8.09-9.38-15.46-19.47-21.29c-26.12-15.08-68.31-15.35-95.03-0.82l-18.99-10.96
	l135.62-78.38l138.36,79.88L924.8,300h11.23l10.52-6.08l10.53,6.08h6.42l-13.75-7.94l35.29-20.39l49.07,28.33h0h11.24h0
	L907.16,220.21z"/>
</svg>
